<mxfile host="app.diagrams.net" agent="Mozilla/5.0 (Windows NT 10.0; Win64; x64) AppleWebKit/537.36 (KHTML, like Gecko) Chrome/140.0.0.0 Safari/537.36" version="28.2.5">
  <diagram name="Strona-1" id="gSSp3xcqlCWjID_9G8FG">
    <mxGraphModel dx="2215" dy="1845" grid="1" gridSize="10" guides="1" tooltips="1" connect="1" arrows="1" fold="1" page="1" pageScale="1" pageWidth="827" pageHeight="1169" math="0" shadow="0">
      <root>
        <mxCell id="0" />
        <mxCell id="1" parent="0" />
        <mxCell id="nXhNhY6oTKTXZ59-4rt_-2" value="&lt;b&gt;IViewInventoriesByNameUseCase&lt;/b&gt;&lt;br&gt;Interface klasy ViewInventoriesByNameUseCase w którym jest zdefiniowane z jakich metod tej klasy może korzystać" style="rounded=0;whiteSpace=wrap;html=1;" parent="1" vertex="1">
          <mxGeometry x="-390" y="290" width="250" height="100" as="geometry" />
        </mxCell>
        <mxCell id="nXhNhY6oTKTXZ59-4rt_-3" value="" style="endArrow=classic;startArrow=classic;html=1;rounded=0;exitX=1;exitY=0.5;exitDx=0;exitDy=0;entryX=0;entryY=0.5;entryDx=0;entryDy=0;" parent="1" source="nXhNhY6oTKTXZ59-4rt_-2" edge="1">
          <mxGeometry width="50" height="50" relative="1" as="geometry">
            <mxPoint x="140" y="470" as="sourcePoint" />
            <mxPoint x="39" y="440" as="targetPoint" />
          </mxGeometry>
        </mxCell>
        <mxCell id="nXhNhY6oTKTXZ59-4rt_-4" value="&lt;b&gt;InventoryRepository&lt;/b&gt;&lt;br&gt;Klasa będąca pośrednikiem pomiędzy UseCase a bazą danych. W niej znajduje się definicja metody przeszukująca listę po nazwie przedmiotu" style="rounded=0;whiteSpace=wrap;html=1;" parent="1" vertex="1">
          <mxGeometry x="289" y="120" width="250" height="80" as="geometry" />
        </mxCell>
        <mxCell id="nXhNhY6oTKTXZ59-4rt_-5" value="" style="endArrow=classic;html=1;rounded=0;entryX=0.5;entryY=0;entryDx=0;entryDy=0;exitX=0.5;exitY=1;exitDx=0;exitDy=0;" parent="1" source="nXhNhY6oTKTXZ59-4rt_-4" target="nXhNhY6oTKTXZ59-4rt_-2" edge="1">
          <mxGeometry width="50" height="50" relative="1" as="geometry">
            <mxPoint x="390" y="320" as="sourcePoint" />
            <mxPoint x="414" y="260" as="targetPoint" />
            <Array as="points">
              <mxPoint x="414" y="240" />
              <mxPoint x="-55" y="240" />
            </Array>
          </mxGeometry>
        </mxCell>
        <mxCell id="nXhNhY6oTKTXZ59-4rt_-6" value="&lt;b&gt;Inventory&lt;/b&gt;&lt;br&gt;Klasa która definiująca model danych tj. to jakie są typy zamieszczanych danych i co mozna z nimi zrobić. i jak będzie wyglądał obiekt tej klasy" style="rounded=0;whiteSpace=wrap;html=1;" parent="1" vertex="1">
          <mxGeometry x="289" y="-30" width="250" height="80" as="geometry" />
        </mxCell>
        <mxCell id="nXhNhY6oTKTXZ59-4rt_-7" value="" style="endArrow=classic;html=1;rounded=0;entryX=0.5;entryY=0;entryDx=0;entryDy=0;exitX=0.5;exitY=1;exitDx=0;exitDy=0;" parent="1" source="nXhNhY6oTKTXZ59-4rt_-6" target="nXhNhY6oTKTXZ59-4rt_-4" edge="1">
          <mxGeometry width="50" height="50" relative="1" as="geometry">
            <mxPoint x="111" y="250" as="sourcePoint" />
            <mxPoint x="135" y="190" as="targetPoint" />
          </mxGeometry>
        </mxCell>
        <mxCell id="nXhNhY6oTKTXZ59-4rt_-10" value="&lt;b&gt;IInventoryRepository&lt;/b&gt;&lt;br&gt;Interface klasy&amp;nbsp;&lt;b&gt;InventoryRepository&lt;/b&gt;&amp;nbsp;w którym jest zdefiniowane z jakich metod tej klasy może korzystać" style="rounded=0;whiteSpace=wrap;html=1;" parent="1" vertex="1">
          <mxGeometry x="-350" y="110" width="250" height="100" as="geometry" />
        </mxCell>
        <mxCell id="nXhNhY6oTKTXZ59-4rt_-11" value="" style="endArrow=classic;startArrow=classic;html=1;rounded=0;exitX=1;exitY=0.5;exitDx=0;exitDy=0;entryX=0;entryY=0.5;entryDx=0;entryDy=0;" parent="1" source="nXhNhY6oTKTXZ59-4rt_-10" target="nXhNhY6oTKTXZ59-4rt_-4" edge="1">
          <mxGeometry width="50" height="50" relative="1" as="geometry">
            <mxPoint x="390" y="170" as="sourcePoint" />
            <mxPoint x="289" y="140" as="targetPoint" />
          </mxGeometry>
        </mxCell>
        <mxCell id="nXhNhY6oTKTXZ59-4rt_-15" value="" style="endArrow=classic;html=1;rounded=0;exitX=0.5;exitY=1;exitDx=0;exitDy=0;entryX=0.5;entryY=0;entryDx=0;entryDy=0;" parent="1" edge="1">
          <mxGeometry width="50" height="50" relative="1" as="geometry">
            <mxPoint x="164" y="470" as="sourcePoint" />
            <mxPoint x="164" y="540" as="targetPoint" />
          </mxGeometry>
        </mxCell>
        <mxCell id="nXhNhY6oTKTXZ59-4rt_-18" value="" style="endArrow=classic;html=1;rounded=0;exitX=0;exitY=0.5;exitDx=0;exitDy=0;entryX=1;entryY=0.5;entryDx=0;entryDy=0;" parent="1" edge="1">
          <mxGeometry width="50" height="50" relative="1" as="geometry">
            <mxPoint x="327" y="570" as="sourcePoint" />
            <mxPoint x="289" y="570" as="targetPoint" />
          </mxGeometry>
        </mxCell>
        <mxCell id="nXhNhY6oTKTXZ59-4rt_-19" value="&lt;b&gt;NavMenu&lt;/b&gt;&lt;div&gt;Plik definiujący jak wygląda boczne menu nawigacyjne&lt;/div&gt;" style="rounded=0;whiteSpace=wrap;html=1;" parent="1" vertex="1">
          <mxGeometry x="630" y="140" width="150" height="60" as="geometry" />
        </mxCell>
        <mxCell id="nXhNhY6oTKTXZ59-4rt_-20" value="&lt;b&gt;Home&lt;/b&gt;&lt;br&gt;Plik definiujący jak wyglada strona &lt;b&gt;Home&lt;/b&gt;" style="rounded=0;whiteSpace=wrap;html=1;" parent="1" vertex="1">
          <mxGeometry x="600" y="310" width="150" height="60" as="geometry" />
        </mxCell>
        <mxCell id="nXhNhY6oTKTXZ59-4rt_-21" value="" style="endArrow=classic;html=1;rounded=0;exitX=1;exitY=0.5;exitDx=0;exitDy=0;entryX=0;entryY=0.5;entryDx=0;entryDy=0;" parent="1" source="nXhNhY6oTKTXZ59-4rt_-41" target="nXhNhY6oTKTXZ59-4rt_-20" edge="1">
          <mxGeometry width="50" height="50" relative="1" as="geometry">
            <mxPoint x="539" y="290" as="sourcePoint" />
            <mxPoint x="620" y="190" as="targetPoint" />
          </mxGeometry>
        </mxCell>
        <mxCell id="nXhNhY6oTKTXZ59-4rt_-22" value="&lt;b&gt;InventoryList&lt;/b&gt;" style="rounded=0;whiteSpace=wrap;html=1;" parent="1" vertex="1">
          <mxGeometry x="890" y="150" width="150" height="60" as="geometry" />
        </mxCell>
        <mxCell id="nXhNhY6oTKTXZ59-4rt_-23" value="&lt;b&gt;_Imports&lt;/b&gt;&lt;br&gt;plik w ktorym definiuje jakie pliki są importowane do Pages (chyba)" style="rounded=0;whiteSpace=wrap;html=1;" parent="1" vertex="1">
          <mxGeometry x="1120" y="140" width="150" height="60" as="geometry" />
        </mxCell>
        <mxCell id="nXhNhY6oTKTXZ59-4rt_-24" value="&lt;b&gt;Program.cs&lt;/b&gt;&lt;div&gt;Plik w którym definiuje które interfejsy są zdefinowane z którymi klasami i jakim typem powiązania&lt;/div&gt;" style="rounded=0;whiteSpace=wrap;html=1;" parent="1" vertex="1">
          <mxGeometry x="-700" y="200" width="200" height="90" as="geometry" />
        </mxCell>
        <mxCell id="nXhNhY6oTKTXZ59-4rt_-28" value="" style="endArrow=classic;startArrow=classic;html=1;rounded=0;entryX=0;entryY=0.5;entryDx=0;entryDy=0;exitX=1;exitY=0.5;exitDx=0;exitDy=0;" parent="1" source="nXhNhY6oTKTXZ59-4rt_-24" target="nXhNhY6oTKTXZ59-4rt_-2" edge="1">
          <mxGeometry width="50" height="50" relative="1" as="geometry">
            <mxPoint x="-500" y="250" as="sourcePoint" />
            <mxPoint x="60" y="310" as="targetPoint" />
            <Array as="points">
              <mxPoint x="-450" y="245" />
              <mxPoint x="-450" y="340" />
            </Array>
          </mxGeometry>
        </mxCell>
        <mxCell id="nXhNhY6oTKTXZ59-4rt_-29" value="" style="endArrow=classic;startArrow=classic;html=1;rounded=0;exitX=1;exitY=0.5;exitDx=0;exitDy=0;entryX=0;entryY=0.5;entryDx=0;entryDy=0;" parent="1" source="nXhNhY6oTKTXZ59-4rt_-24" target="nXhNhY6oTKTXZ59-4rt_-10" edge="1">
          <mxGeometry width="50" height="50" relative="1" as="geometry">
            <mxPoint x="50" y="360" as="sourcePoint" />
            <mxPoint x="100" y="310" as="targetPoint" />
            <Array as="points">
              <mxPoint x="-450" y="245" />
              <mxPoint x="-450" y="160" />
            </Array>
          </mxGeometry>
        </mxCell>
        <mxCell id="nXhNhY6oTKTXZ59-4rt_-31" value="&lt;b&gt;AddInventoriesByNameUseCase&lt;/b&gt;&lt;br&gt;Klasa która posiada odwołanie do metody dzięki której może dodawać obiekt do listy" style="rounded=0;whiteSpace=wrap;html=1;" parent="1" vertex="1">
          <mxGeometry x="170" y="280" width="280" height="80" as="geometry" />
        </mxCell>
        <mxCell id="nXhNhY6oTKTXZ59-4rt_-32" value="" style="endArrow=classic;html=1;rounded=0;exitX=0.5;exitY=1;exitDx=0;exitDy=0;entryX=0.5;entryY=0;entryDx=0;entryDy=0;" parent="1" source="nXhNhY6oTKTXZ59-4rt_-4" target="nXhNhY6oTKTXZ59-4rt_-31" edge="1">
          <mxGeometry width="50" height="50" relative="1" as="geometry">
            <mxPoint x="330" y="220" as="sourcePoint" />
            <mxPoint x="380" y="170" as="targetPoint" />
            <Array as="points">
              <mxPoint x="414" y="240" />
              <mxPoint x="310" y="240" />
            </Array>
          </mxGeometry>
        </mxCell>
        <mxCell id="nXhNhY6oTKTXZ59-4rt_-39" value="&lt;b&gt;InventoryListItemComponent&lt;/b&gt;&lt;br&gt;Klasa która definiuje to jak wygląda pojedyńczy wiersz w tabeli&amp;nbsp;" style="rounded=0;whiteSpace=wrap;html=1;" parent="1" vertex="1">
          <mxGeometry x="327" y="520" width="250" height="100" as="geometry" />
        </mxCell>
        <mxCell id="nXhNhY6oTKTXZ59-4rt_-40" value="&lt;b&gt;InventoryListComponent&lt;/b&gt;&lt;br&gt;Klasa która definiuje to jak wygląda ta tabele w której będziemy wyszukiwać" style="rounded=0;whiteSpace=wrap;html=1;" parent="1" vertex="1">
          <mxGeometry x="39" y="540" width="250" height="60" as="geometry" />
        </mxCell>
        <mxCell id="nXhNhY6oTKTXZ59-4rt_-41" value="&lt;b&gt;ViewInventoriesByNameUseCase&lt;/b&gt;&lt;br&gt;Klasa która posiada odwołanie do metody dzięki której może przeszukiwać tabelę wpisując nazwę przedmiotu" style="rounded=0;whiteSpace=wrap;html=1;" parent="1" vertex="1">
          <mxGeometry x="-120" y="290" width="250" height="80" as="geometry" />
        </mxCell>
        <mxCell id="KRu3oul-iDjXxvltj7dO-1" value="&lt;b&gt;IViewInventoriesByNameUseCase&lt;/b&gt;&lt;br&gt;Interface klasy ViewInventoriesByNameUseCase w którym jest zdefiniowane z jakich metod tej klasy może korzystać" style="rounded=0;whiteSpace=wrap;html=1;" parent="1" vertex="1">
          <mxGeometry x="1740" y="1620" width="250" height="100" as="geometry" />
        </mxCell>
        <mxCell id="KRu3oul-iDjXxvltj7dO-3" value="&lt;b&gt;InventoryRepository&lt;/b&gt;&lt;br&gt;Klasa będąca pośrednikiem pomiędzy UseCase a bazą danych. W niej znajduje się definicja metody przeszukująca listę po nazwie przedmiotu" style="rounded=0;whiteSpace=wrap;html=1;" parent="1" vertex="1">
          <mxGeometry x="2159" y="840" width="250" height="80" as="geometry" />
        </mxCell>
        <mxCell id="KRu3oul-iDjXxvltj7dO-5" value="&lt;b&gt;Inventory&lt;/b&gt;&lt;br&gt;Klasa która definiująca model danych tj. to jakie są typy zamieszczanych danych i co mozna z nimi zrobić. i jak będzie wyglądał obiekt tej klasy" style="rounded=0;whiteSpace=wrap;html=1;" parent="1" vertex="1">
          <mxGeometry x="2159" y="690" width="250" height="80" as="geometry" />
        </mxCell>
        <mxCell id="KRu3oul-iDjXxvltj7dO-6" value="" style="endArrow=classic;html=1;rounded=0;entryX=0.5;entryY=0;entryDx=0;entryDy=0;exitX=0.5;exitY=1;exitDx=0;exitDy=0;" parent="1" source="KRu3oul-iDjXxvltj7dO-5" target="KRu3oul-iDjXxvltj7dO-3" edge="1">
          <mxGeometry width="50" height="50" relative="1" as="geometry">
            <mxPoint x="1981" y="970" as="sourcePoint" />
            <mxPoint x="2005" y="910" as="targetPoint" />
          </mxGeometry>
        </mxCell>
        <mxCell id="KRu3oul-iDjXxvltj7dO-7" value="&lt;b&gt;IInventoryRepository&lt;/b&gt;&lt;br&gt;Interface klasy&amp;nbsp;&lt;b&gt;InventoryRepository&lt;/b&gt;&amp;nbsp;w którym jest zdefiniowane z jakich metod tej klasy może korzystać" style="rounded=0;whiteSpace=wrap;html=1;" parent="1" vertex="1">
          <mxGeometry x="2165" y="1100" width="250" height="100" as="geometry" />
        </mxCell>
        <mxCell id="KRu3oul-iDjXxvltj7dO-9" value="" style="endArrow=classic;html=1;rounded=0;entryX=0.5;entryY=0;entryDx=0;entryDy=0;exitX=0.5;exitY=1;exitDx=0;exitDy=0;" parent="1" source="KRu3oul-iDjXxvltj7dO-1" target="KRu3oul-iDjXxvltj7dO-22" edge="1">
          <mxGeometry width="50" height="50" relative="1" as="geometry">
            <mxPoint x="1531" y="1770" as="sourcePoint" />
            <mxPoint x="1141" y="1850" as="targetPoint" />
            <Array as="points">
              <mxPoint x="1860" y="1780" />
              <mxPoint x="1530" y="1780" />
            </Array>
          </mxGeometry>
        </mxCell>
        <mxCell id="KRu3oul-iDjXxvltj7dO-10" value="" style="endArrow=classic;html=1;rounded=0;exitX=1;exitY=0.5;exitDx=0;exitDy=0;entryX=0;entryY=0.5;entryDx=0;entryDy=0;" parent="1" source="KRu3oul-iDjXxvltj7dO-21" target="KRu3oul-iDjXxvltj7dO-22" edge="1">
          <mxGeometry width="50" height="50" relative="1" as="geometry">
            <mxPoint x="1024" y="2020" as="sourcePoint" />
            <mxPoint x="986" y="2020" as="targetPoint" />
          </mxGeometry>
        </mxCell>
        <mxCell id="KRu3oul-iDjXxvltj7dO-11" value="&lt;b&gt;NavMenu&lt;/b&gt;&lt;div&gt;Plik definiujący jak wygląda boczne menu nawigacyjne i posiadający odnośniki do plików gdzie definiowany jest wygląd konkretnych stron&lt;/div&gt;" style="rounded=0;whiteSpace=wrap;html=1;" parent="1" vertex="1">
          <mxGeometry x="1160" y="1220" width="260" height="200" as="geometry" />
        </mxCell>
        <mxCell id="KRu3oul-iDjXxvltj7dO-14" value="&lt;b&gt;InventoryList&lt;/b&gt;&lt;div&gt;&lt;b&gt;Plik w którym definiuje wygląd strony i do jakie będą w niej inne elementy&lt;/b&gt;&lt;/div&gt;" style="rounded=0;whiteSpace=wrap;html=1;" parent="1" vertex="1">
          <mxGeometry x="1240" y="1570" width="220" height="130" as="geometry" />
        </mxCell>
        <mxCell id="KRu3oul-iDjXxvltj7dO-15" value="&lt;b&gt;_Imports&lt;/b&gt;&lt;br&gt;plik w ktorym definiuje jakie pliki są importowane do Pages (chyba)" style="rounded=0;whiteSpace=wrap;html=1;" parent="1" vertex="1">
          <mxGeometry x="2670" y="1880" width="150" height="60" as="geometry" />
        </mxCell>
        <mxCell id="KRu3oul-iDjXxvltj7dO-16" value="&lt;b&gt;Program.cs&lt;/b&gt;&lt;div&gt;Plik w którym definiuje które interfejsy są zdefinowane z którymi klasami i jakim typem powiązania&lt;/div&gt;" style="rounded=0;whiteSpace=wrap;html=1;" parent="1" vertex="1">
          <mxGeometry x="2190" y="960" width="200" height="90" as="geometry" />
        </mxCell>
        <mxCell id="KRu3oul-iDjXxvltj7dO-19" value="&lt;b&gt;AddInventoriesByNameUseCase&lt;/b&gt;&lt;br&gt;Klasa która posiada odwołanie do metody dzięki której może dodawać obiekt do listy" style="rounded=0;whiteSpace=wrap;html=1;" parent="1" vertex="1">
          <mxGeometry x="2150" y="1320" width="280" height="80" as="geometry" />
        </mxCell>
        <mxCell id="KRu3oul-iDjXxvltj7dO-21" value="&lt;b&gt;InventoryListItemComponent&lt;/b&gt;&lt;br&gt;Klasa która definiuje to jak wygląda pojedyńczy wiersz w tabeli&amp;nbsp;" style="rounded=0;whiteSpace=wrap;html=1;" parent="1" vertex="1">
          <mxGeometry x="1070" y="1820" width="250" height="100" as="geometry" />
        </mxCell>
        <mxCell id="KRu3oul-iDjXxvltj7dO-22" value="&lt;b&gt;InventoryListComponent&lt;/b&gt;&lt;br&gt;Klasa która definiuje to jak wygląda ta tabele w której będziemy wyszukiwać" style="rounded=0;whiteSpace=wrap;html=1;" parent="1" vertex="1">
          <mxGeometry x="1406" y="1840" width="250" height="60" as="geometry" />
        </mxCell>
        <mxCell id="KRu3oul-iDjXxvltj7dO-23" value="&lt;b&gt;ViewInventoriesByNameUseCase&lt;/b&gt;&lt;br&gt;Klasa która posiada odwołanie do metody dzięki której może przeszukiwać tabelę wpisując nazwę przedmiotu" style="rounded=0;whiteSpace=wrap;html=1;" parent="1" vertex="1">
          <mxGeometry x="1740" y="1320" width="250" height="80" as="geometry" />
        </mxCell>
        <mxCell id="KRu3oul-iDjXxvltj7dO-24" value="&lt;b&gt;Program.cs&lt;/b&gt;&lt;div&gt;Plik w którym definiuje które interfejsy są zdefinowane z którymi klasami i jakim typem powiązania&lt;/div&gt;" style="rounded=0;whiteSpace=wrap;html=1;" parent="1" vertex="1">
          <mxGeometry x="1765" y="1470" width="200" height="90" as="geometry" />
        </mxCell>
        <mxCell id="KRu3oul-iDjXxvltj7dO-25" value="&lt;b&gt;Program.cs&lt;/b&gt;&lt;div&gt;Plik w którym definiuje które interfejsy są zdefinowane z którymi klasami i jakim typem powiązania&lt;/div&gt;" style="rounded=0;whiteSpace=wrap;html=1;" parent="1" vertex="1">
          <mxGeometry x="2192.5" y="1470" width="200" height="90" as="geometry" />
        </mxCell>
        <mxCell id="KRu3oul-iDjXxvltj7dO-26" value="&lt;b&gt;IAddInventoriesByNameUseCase&lt;/b&gt;&lt;br&gt;Interface klasy AddInventoriesByNameUseCase w którym jest zdefiniowane z jakich metod tej klasy może korzystać" style="rounded=0;whiteSpace=wrap;html=1;" parent="1" vertex="1">
          <mxGeometry x="2150" y="1620" width="285" height="100" as="geometry" />
        </mxCell>
        <mxCell id="KRu3oul-iDjXxvltj7dO-27" value="" style="endArrow=classic;startArrow=classic;html=1;rounded=0;entryX=0.5;entryY=1;entryDx=0;entryDy=0;exitX=0.5;exitY=0;exitDx=0;exitDy=0;" parent="1" source="KRu3oul-iDjXxvltj7dO-16" target="KRu3oul-iDjXxvltj7dO-3" edge="1">
          <mxGeometry width="50" height="50" relative="1" as="geometry">
            <mxPoint x="2180" y="1040" as="sourcePoint" />
            <mxPoint x="2230" y="990" as="targetPoint" />
          </mxGeometry>
        </mxCell>
        <mxCell id="KRu3oul-iDjXxvltj7dO-28" value="" style="endArrow=classic;startArrow=classic;html=1;rounded=0;entryX=0.5;entryY=1;entryDx=0;entryDy=0;exitX=0.5;exitY=0;exitDx=0;exitDy=0;" parent="1" source="KRu3oul-iDjXxvltj7dO-7" target="KRu3oul-iDjXxvltj7dO-16" edge="1">
          <mxGeometry width="50" height="50" relative="1" as="geometry">
            <mxPoint x="2266" y="1010" as="sourcePoint" />
            <mxPoint x="2260" y="970" as="targetPoint" />
          </mxGeometry>
        </mxCell>
        <mxCell id="KRu3oul-iDjXxvltj7dO-33" value="" style="endArrow=classic;html=1;rounded=0;exitX=0.5;exitY=1;exitDx=0;exitDy=0;entryX=0.5;entryY=0;entryDx=0;entryDy=0;" parent="1" source="KRu3oul-iDjXxvltj7dO-7" target="KRu3oul-iDjXxvltj7dO-19" edge="1">
          <mxGeometry width="50" height="50" relative="1" as="geometry">
            <mxPoint x="2200" y="1440" as="sourcePoint" />
            <mxPoint x="2250" y="1390" as="targetPoint" />
          </mxGeometry>
        </mxCell>
        <mxCell id="KRu3oul-iDjXxvltj7dO-34" value="" style="endArrow=classic;html=1;rounded=0;exitX=0.5;exitY=1;exitDx=0;exitDy=0;entryX=0.5;entryY=0;entryDx=0;entryDy=0;" parent="1" source="KRu3oul-iDjXxvltj7dO-7" target="KRu3oul-iDjXxvltj7dO-23" edge="1">
          <mxGeometry width="50" height="50" relative="1" as="geometry">
            <mxPoint x="2068" y="1169" as="sourcePoint" />
            <mxPoint x="2068" y="1289" as="targetPoint" />
            <Array as="points">
              <mxPoint x="2290" y="1240" />
              <mxPoint x="1865" y="1240" />
            </Array>
          </mxGeometry>
        </mxCell>
        <mxCell id="KRu3oul-iDjXxvltj7dO-35" value="" style="endArrow=classic;startArrow=classic;html=1;rounded=0;exitX=0.5;exitY=1;exitDx=0;exitDy=0;entryX=0.5;entryY=0;entryDx=0;entryDy=0;" parent="1" source="KRu3oul-iDjXxvltj7dO-23" target="KRu3oul-iDjXxvltj7dO-24" edge="1">
          <mxGeometry width="50" height="50" relative="1" as="geometry">
            <mxPoint x="2200" y="1440" as="sourcePoint" />
            <mxPoint x="2250" y="1390" as="targetPoint" />
          </mxGeometry>
        </mxCell>
        <mxCell id="KRu3oul-iDjXxvltj7dO-36" value="" style="endArrow=classic;startArrow=classic;html=1;rounded=0;exitX=0.5;exitY=1;exitDx=0;exitDy=0;entryX=0.5;entryY=0;entryDx=0;entryDy=0;" parent="1" source="KRu3oul-iDjXxvltj7dO-24" target="KRu3oul-iDjXxvltj7dO-1" edge="1">
          <mxGeometry width="50" height="50" relative="1" as="geometry">
            <mxPoint x="2070" y="1440" as="sourcePoint" />
            <mxPoint x="2070" y="1510" as="targetPoint" />
          </mxGeometry>
        </mxCell>
        <mxCell id="KRu3oul-iDjXxvltj7dO-37" value="" style="endArrow=classic;startArrow=classic;html=1;rounded=0;exitX=0.5;exitY=1;exitDx=0;exitDy=0;entryX=0.5;entryY=0;entryDx=0;entryDy=0;" parent="1" source="KRu3oul-iDjXxvltj7dO-19" target="KRu3oul-iDjXxvltj7dO-25" edge="1">
          <mxGeometry width="50" height="50" relative="1" as="geometry">
            <mxPoint x="2010" y="1480" as="sourcePoint" />
            <mxPoint x="2010" y="1540" as="targetPoint" />
          </mxGeometry>
        </mxCell>
        <mxCell id="KRu3oul-iDjXxvltj7dO-38" value="" style="endArrow=classic;startArrow=classic;html=1;rounded=0;exitX=0.5;exitY=0;exitDx=0;exitDy=0;entryX=0.5;entryY=1;entryDx=0;entryDy=0;" parent="1" source="KRu3oul-iDjXxvltj7dO-26" target="KRu3oul-iDjXxvltj7dO-25" edge="1">
          <mxGeometry width="50" height="50" relative="1" as="geometry">
            <mxPoint x="2280" y="1490" as="sourcePoint" />
            <mxPoint x="2283" y="1560" as="targetPoint" />
          </mxGeometry>
        </mxCell>
        <mxCell id="KRu3oul-iDjXxvltj7dO-40" value="&lt;b&gt;&lt;font style=&quot;font-size: 36px;&quot;&gt;SCHEMAT POWIĄZAŃ POMIĘDZY PLIKAMI&lt;/font&gt;&lt;/b&gt;" style="rounded=0;whiteSpace=wrap;html=1;" parent="1" vertex="1">
          <mxGeometry x="2102.5" y="495" width="380" height="150" as="geometry" />
        </mxCell>
        <mxCell id="KRu3oul-iDjXxvltj7dO-41" value="&lt;b&gt;&lt;font style=&quot;font-size: 36px;&quot;&gt;SCHEMAT TWORZENIA APKI&lt;/font&gt;&lt;/b&gt;&lt;div&gt;&lt;b&gt;&lt;font style=&quot;font-size: 36px;&quot;&gt;na przykładzie useCase &quot;VievInventoriesByNameUseCase&quot;&lt;/font&gt;&lt;/b&gt;&lt;/div&gt;" style="rounded=0;whiteSpace=wrap;html=1;" parent="1" vertex="1">
          <mxGeometry x="2930" y="360" width="580" height="300" as="geometry" />
        </mxCell>
        <mxCell id="KRu3oul-iDjXxvltj7dO-42" value="&lt;b&gt;Tworzymy UseCase w którym:&lt;/b&gt;&lt;br&gt;3. Tworzę metodę w której ciało jest działaniem metody która zdefiniowana jest w InventoryRepository i obiektu InventoryRepository&lt;br&gt;&lt;div&gt;1. tworzę miejsce na obiekt z inventoryRepository&lt;div&gt;2. Robię dependency injection klasy która jest moim pośrednikiem pomiędzy UseCase a bazą danych w tym wypadku InventoryRepository&lt;/div&gt;&lt;div&gt;&lt;br&gt;&lt;/div&gt;&lt;div&gt;4. Przed &quot;Ctrl.&quot; tworze plik IInventoryRepository i funkcję która w nim będzie (3.23 5.41)&lt;/div&gt;&lt;/div&gt;" style="rounded=0;whiteSpace=wrap;html=1;" parent="1" vertex="1">
          <mxGeometry x="3070" y="690" width="300" height="170" as="geometry" />
        </mxCell>
        <mxCell id="KRu3oul-iDjXxvltj7dO-43" value="" style="endArrow=classic;html=1;rounded=0;exitX=0.5;exitY=1;exitDx=0;exitDy=0;entryX=0.5;entryY=0;entryDx=0;entryDy=0;" parent="1" source="KRu3oul-iDjXxvltj7dO-42" target="KRu3oul-iDjXxvltj7dO-44" edge="1">
          <mxGeometry width="50" height="50" relative="1" as="geometry">
            <mxPoint x="2910" y="990" as="sourcePoint" />
            <mxPoint x="3220" y="900" as="targetPoint" />
          </mxGeometry>
        </mxCell>
        <mxCell id="KRu3oul-iDjXxvltj7dO-44" value="&lt;b&gt;Tworzymy klasę która komunikuje się z bazą danych:&lt;/b&gt;&lt;br&gt;1. Tworzę klase InventoryRepository z interface w której będą metory jakie będą na niej wykonywane i zawarte w niej dane&lt;div&gt;2. przez Ctrl. tworzę w niej metodę z UseCase ale z logiką&lt;/div&gt;&lt;div&gt;&lt;br&gt;&lt;/div&gt;" style="rounded=0;whiteSpace=wrap;html=1;" parent="1" vertex="1">
          <mxGeometry x="3070" y="900" width="300" height="130" as="geometry" />
        </mxCell>
        <mxCell id="KRu3oul-iDjXxvltj7dO-46" value="" style="endArrow=classic;html=1;rounded=0;exitX=0.5;exitY=1;exitDx=0;exitDy=0;entryX=0.5;entryY=0;entryDx=0;entryDy=0;" parent="1" source="KRu3oul-iDjXxvltj7dO-44" target="KRu3oul-iDjXxvltj7dO-47" edge="1">
          <mxGeometry width="50" height="50" relative="1" as="geometry">
            <mxPoint x="2910" y="990" as="sourcePoint" />
            <mxPoint x="3220" y="1100" as="targetPoint" />
          </mxGeometry>
        </mxCell>
        <mxCell id="KRu3oul-iDjXxvltj7dO-47" value="&lt;b&gt;Tworzymy klasę naszej bazy danych) (Inventory)&amp;nbsp;&lt;/b&gt;" style="rounded=0;whiteSpace=wrap;html=1;" parent="1" vertex="1">
          <mxGeometry x="3080" y="1100" width="280" height="60" as="geometry" />
        </mxCell>
        <mxCell id="KRu3oul-iDjXxvltj7dO-48" value="" style="endArrow=classic;html=1;rounded=0;exitX=0.5;exitY=1;exitDx=0;exitDy=0;entryX=0.5;entryY=0;entryDx=0;entryDy=0;" parent="1" source="KRu3oul-iDjXxvltj7dO-47" target="KRu3oul-iDjXxvltj7dO-49" edge="1">
          <mxGeometry width="50" height="50" relative="1" as="geometry">
            <mxPoint x="3220" y="1180" as="sourcePoint" />
            <mxPoint x="3220" y="1250" as="targetPoint" />
          </mxGeometry>
        </mxCell>
        <mxCell id="KRu3oul-iDjXxvltj7dO-49" value="&lt;b&gt;Tworzymy połaczenie pomiędzy naszymi plikami a ich interfejsami w programie &quot;Program.CS&quot; uwzględniając jak te połaczenia mają wyglądać i ile trwać&lt;/b&gt;" style="rounded=0;whiteSpace=wrap;html=1;" parent="1" vertex="1">
          <mxGeometry x="3080" y="1250" width="280" height="60" as="geometry" />
        </mxCell>
        <mxCell id="KRu3oul-iDjXxvltj7dO-50" value="" style="endArrow=classic;html=1;rounded=0;exitX=0.5;exitY=1;exitDx=0;exitDy=0;entryX=0.5;entryY=0;entryDx=0;entryDy=0;" parent="1" source="KRu3oul-iDjXxvltj7dO-49" target="KRu3oul-iDjXxvltj7dO-51" edge="1">
          <mxGeometry width="50" height="50" relative="1" as="geometry">
            <mxPoint x="3220" y="1320" as="sourcePoint" />
            <mxPoint x="3220" y="1410" as="targetPoint" />
          </mxGeometry>
        </mxCell>
        <mxCell id="KRu3oul-iDjXxvltj7dO-51" value="&lt;b&gt;Tworzymy poprzez &quot;Ctrl.&quot; interface UseCase w tym wypadku &quot;VievInventoriesByNameUsecase&quot; w którym powinna być wpisana metoda której ten interfejs może używać i tworzę pomiezy nimi połaćzenie w &quot;Program.cs&quot;&lt;/b&gt;" style="rounded=0;whiteSpace=wrap;html=1;" parent="1" vertex="1">
          <mxGeometry x="3080" y="1410" width="280" height="90" as="geometry" />
        </mxCell>
        <mxCell id="KRu3oul-iDjXxvltj7dO-53" value="" style="endArrow=classic;html=1;rounded=0;exitX=0.5;exitY=1;exitDx=0;exitDy=0;entryX=0.5;entryY=0;entryDx=0;entryDy=0;" parent="1" source="KRu3oul-iDjXxvltj7dO-51" target="KRu3oul-iDjXxvltj7dO-54" edge="1">
          <mxGeometry width="50" height="50" relative="1" as="geometry">
            <mxPoint x="3220" y="1510" as="sourcePoint" />
            <mxPoint x="3220" y="1610" as="targetPoint" />
          </mxGeometry>
        </mxCell>
        <mxCell id="KRu3oul-iDjXxvltj7dO-54" value="&lt;b&gt;W plikach w folderze Pages tworzę wygląd konkretnych stron tworzę wygląd stwony&lt;/b&gt;&lt;div&gt;&lt;b&gt;W tym wypadku implementujemy Inventory i to jak będzie działać&lt;/b&gt;&lt;/div&gt;" style="rounded=0;whiteSpace=wrap;html=1;" parent="1" vertex="1">
          <mxGeometry x="3080" y="1610" width="280" height="90" as="geometry" />
        </mxCell>
        <mxCell id="KRu3oul-iDjXxvltj7dO-55" value="&lt;b&gt;&lt;font style=&quot;font-size: 18px;&quot;&gt;Do skończenia jest schemat postępowania. Obecnie skończyłem na lekcji 2.19&amp;nbsp; &amp;nbsp; 19.09.2025&lt;/font&gt;&lt;/b&gt;" style="rounded=0;whiteSpace=wrap;html=1;" parent="1" vertex="1">
          <mxGeometry x="2835" y="1570" width="135" height="110" as="geometry" />
        </mxCell>
        <mxCell id="UIPpP_PnElr5HlThM-xr-1" value="" style="endArrow=classic;html=1;rounded=0;entryX=0.5;entryY=0;entryDx=0;entryDy=0;exitX=0.5;exitY=1;exitDx=0;exitDy=0;" parent="1" source="KRu3oul-iDjXxvltj7dO-54" target="UIPpP_PnElr5HlThM-xr-2" edge="1">
          <mxGeometry width="50" height="50" relative="1" as="geometry">
            <mxPoint x="3210" y="1730" as="sourcePoint" />
            <mxPoint x="3220" y="1810" as="targetPoint" />
          </mxGeometry>
        </mxCell>
        <mxCell id="UIPpP_PnElr5HlThM-xr-2" value="&lt;b&gt;Tworzę page component jako &quot;razor Component&quot; w tym wypadku jako &quot;inventory list&quot; i żeby to zrobić muszę zrobić rout (zobaczyć 2.19 3min)&lt;/b&gt;" style="rounded=0;whiteSpace=wrap;html=1;" parent="1" vertex="1">
          <mxGeometry x="3080" y="1810" width="280" height="90" as="geometry" />
        </mxCell>
        <mxCell id="UIPpP_PnElr5HlThM-xr-3" value="" style="endArrow=classic;html=1;rounded=0;entryX=0.5;entryY=0;entryDx=0;entryDy=0;exitX=0.5;exitY=1;exitDx=0;exitDy=0;" parent="1" source="UIPpP_PnElr5HlThM-xr-2" target="UIPpP_PnElr5HlThM-xr-4" edge="1">
          <mxGeometry width="50" height="50" relative="1" as="geometry">
            <mxPoint x="3220" y="1920" as="sourcePoint" />
            <mxPoint x="3220" y="2010" as="targetPoint" />
          </mxGeometry>
        </mxCell>
        <mxCell id="UIPpP_PnElr5HlThM-xr-4" value="&lt;b&gt;W NavMenu tworzę zakładkę wcześniej stworzonej strony&amp;nbsp;&lt;/b&gt;&lt;b&gt;(zobaczyć 2.19 6min)&lt;/b&gt;" style="rounded=0;whiteSpace=wrap;html=1;" parent="1" vertex="1">
          <mxGeometry x="3080" y="2010" width="280" height="90" as="geometry" />
        </mxCell>
        <mxCell id="UIPpP_PnElr5HlThM-xr-5" value="&lt;b&gt;&lt;font style=&quot;font-size: 18px;&quot;&gt;Do skończenia jest schemat postępowania. Obecnie skończyłem na lekcji 2.21&amp;nbsp; &amp;nbsp; 01.10.2025&lt;/font&gt;&lt;/b&gt;" style="rounded=0;whiteSpace=wrap;html=1;" parent="1" vertex="1">
          <mxGeometry x="2870" y="2130" width="135" height="110" as="geometry" />
        </mxCell>
        <mxCell id="UIPpP_PnElr5HlThM-xr-6" value="&lt;b&gt;&lt;font style=&quot;font-size: 36px;&quot;&gt;SCHEMAT TWORZENIA APKI&lt;/font&gt;&lt;/b&gt;&lt;div&gt;&lt;b&gt;&lt;font style=&quot;font-size: 36px;&quot;&gt;na przykładzie &quot;Add inventory&quot;&lt;/font&gt;&lt;/b&gt;&lt;/div&gt;" style="rounded=0;whiteSpace=wrap;html=1;" parent="1" vertex="1">
          <mxGeometry x="3610" y="360" width="580" height="300" as="geometry" />
        </mxCell>
        <mxCell id="GKf4cdF1s6Tcl_1GyKkh-1" value="" style="endArrow=classic;html=1;rounded=0;exitX=1;exitY=0.5;exitDx=0;exitDy=0;entryX=0.5;entryY=0;entryDx=0;entryDy=0;" parent="1" source="KRu3oul-iDjXxvltj7dO-54" target="GKf4cdF1s6Tcl_1GyKkh-2" edge="1">
          <mxGeometry width="50" height="50" relative="1" as="geometry">
            <mxPoint x="3430" y="1670" as="sourcePoint" />
            <mxPoint x="3540" y="1810" as="targetPoint" />
            <Array as="points">
              <mxPoint x="3540" y="1655" />
            </Array>
          </mxGeometry>
        </mxCell>
        <mxCell id="GKf4cdF1s6Tcl_1GyKkh-2" value="&lt;b&gt;tworzę komponent&lt;/b&gt;" style="rounded=0;whiteSpace=wrap;html=1;" parent="1" vertex="1">
          <mxGeometry x="3400" y="1810" width="280" height="90" as="geometry" />
        </mxCell>
        <mxCell id="GKf4cdF1s6Tcl_1GyKkh-3" value="" style="endArrow=classic;html=1;rounded=0;entryX=0.5;entryY=0;entryDx=0;entryDy=0;exitX=0.5;exitY=1;exitDx=0;exitDy=0;" parent="1" source="GKf4cdF1s6Tcl_1GyKkh-2" target="GKf4cdF1s6Tcl_1GyKkh-4" edge="1">
          <mxGeometry width="50" height="50" relative="1" as="geometry">
            <mxPoint x="3540" y="1920" as="sourcePoint" />
            <mxPoint x="3540" y="2010" as="targetPoint" />
          </mxGeometry>
        </mxCell>
        <mxCell id="GKf4cdF1s6Tcl_1GyKkh-4" value="&lt;b&gt;W NavMenu tworzę zakładkę wcześniej stworzonej strony&amp;nbsp;&lt;/b&gt;&lt;b&gt;(zobaczyć 2.19 6min)&lt;/b&gt;" style="rounded=0;whiteSpace=wrap;html=1;" parent="1" vertex="1">
          <mxGeometry x="3400" y="2010" width="280" height="90" as="geometry" />
        </mxCell>
        <mxCell id="GKf4cdF1s6Tcl_1GyKkh-5" value="" style="endArrow=classic;html=1;rounded=0;entryX=0.449;entryY=0.988;entryDx=0;entryDy=0;entryPerimeter=0;exitX=0.25;exitY=0;exitDx=0;exitDy=0;" parent="1" source="KRu3oul-iDjXxvltj7dO-22" target="KRu3oul-iDjXxvltj7dO-14" edge="1">
          <mxGeometry width="50" height="50" relative="1" as="geometry">
            <mxPoint x="1930" y="1780" as="sourcePoint" />
            <mxPoint x="1980" y="1730" as="targetPoint" />
            <Array as="points">
              <mxPoint x="1469" y="1780" />
              <mxPoint x="1339" y="1780" />
            </Array>
          </mxGeometry>
        </mxCell>
        <mxCell id="GKf4cdF1s6Tcl_1GyKkh-6" value="&lt;b&gt;AddInventory&lt;/b&gt;" style="rounded=0;whiteSpace=wrap;html=1;" parent="1" vertex="1">
          <mxGeometry x="910" y="1730" width="150" height="60" as="geometry" />
        </mxCell>
        <mxCell id="GKf4cdF1s6Tcl_1GyKkh-7" value="" style="endArrow=classic;html=1;rounded=0;exitX=1;exitY=0.5;exitDx=0;exitDy=0;entryX=0.25;entryY=1;entryDx=0;entryDy=0;" parent="1" source="GKf4cdF1s6Tcl_1GyKkh-6" target="KRu3oul-iDjXxvltj7dO-14" edge="1">
          <mxGeometry width="50" height="50" relative="1" as="geometry">
            <mxPoint x="1930" y="1780" as="sourcePoint" />
            <mxPoint x="1980" y="1730" as="targetPoint" />
            <Array as="points">
              <mxPoint x="1295" y="1760" />
            </Array>
          </mxGeometry>
        </mxCell>
        <mxCell id="GKf4cdF1s6Tcl_1GyKkh-8" value="" style="endArrow=classic;startArrow=classic;html=1;rounded=0;exitX=0.5;exitY=0;exitDx=0;exitDy=0;entryX=0.5;entryY=1;entryDx=0;entryDy=0;" parent="1" source="KRu3oul-iDjXxvltj7dO-14" target="KRu3oul-iDjXxvltj7dO-11" edge="1">
          <mxGeometry width="50" height="50" relative="1" as="geometry">
            <mxPoint x="1930" y="1780" as="sourcePoint" />
            <mxPoint x="1980" y="1730" as="targetPoint" />
          </mxGeometry>
        </mxCell>
        <mxCell id="08VoQowIVhZlx_lKVz8W-1" value="&lt;b&gt;Tworzymy UseCase w którym:&lt;/b&gt;&lt;br&gt;1. Tworzę UseCase w którym mam metodę wywołującą metodę która będzie zdefiniowana w InventoryRepository i będzie działaniem tego UseCase.&lt;div&gt;2. Tworzę dependencyInjection poprzez stworzenie konstruktora poprzez Ctrl. od razu stworzy się nam kod który tez wygeneruje pole do którego będzie przypisywany obiekt stworzony w konstruktorze z interfejsem.&lt;/div&gt;&lt;div&gt;3. jak już mam To pole z interfejsem, konstruktor i wywołanie metody która jest sercem tego UseCase to poprzez Ctrl. na ciele tej metody stworzę jej interface&lt;/div&gt;&lt;div&gt;4. Poprzez Ctrl. na nazwie klasy tworzę jej interfejs&lt;/div&gt;" style="rounded=0;whiteSpace=wrap;html=1;" vertex="1" parent="1">
          <mxGeometry x="3750" y="690" width="300" height="170" as="geometry" />
        </mxCell>
        <mxCell id="08VoQowIVhZlx_lKVz8W-2" value="" style="endArrow=classic;html=1;rounded=0;exitX=0.5;exitY=1;exitDx=0;exitDy=0;entryX=0.5;entryY=0;entryDx=0;entryDy=0;" edge="1" parent="1" source="08VoQowIVhZlx_lKVz8W-1" target="08VoQowIVhZlx_lKVz8W-3">
          <mxGeometry width="50" height="50" relative="1" as="geometry">
            <mxPoint x="3590" y="990" as="sourcePoint" />
            <mxPoint x="3900" y="900" as="targetPoint" />
          </mxGeometry>
        </mxCell>
        <mxCell id="08VoQowIVhZlx_lKVz8W-3" value="&lt;b&gt;Tworzymy logikę&amp;nbsp;&lt;/b&gt;&lt;b&gt;w pliku&amp;nbsp;&lt;/b&gt;&lt;b&gt;Inventory&amp;nbsp;&lt;/b&gt;&lt;b&gt;metody zapisującą obiekt do bazy.&lt;/b&gt;&lt;div&gt;&lt;b&gt;1. Ctrl. na interfejsie tworzę brakującą metodę i następnie tworzę jej logikę&lt;br&gt;&lt;/b&gt;&lt;div&gt;&lt;br&gt;&lt;/div&gt;&lt;/div&gt;" style="rounded=0;whiteSpace=wrap;html=1;" vertex="1" parent="1">
          <mxGeometry x="3750" y="900" width="300" height="130" as="geometry" />
        </mxCell>
        <mxCell id="08VoQowIVhZlx_lKVz8W-4" value="" style="endArrow=classic;html=1;rounded=0;exitX=0.5;exitY=1;exitDx=0;exitDy=0;entryX=0.5;entryY=0;entryDx=0;entryDy=0;" edge="1" parent="1" source="08VoQowIVhZlx_lKVz8W-3" target="08VoQowIVhZlx_lKVz8W-5">
          <mxGeometry width="50" height="50" relative="1" as="geometry">
            <mxPoint x="3590" y="990" as="sourcePoint" />
            <mxPoint x="3900" y="1100" as="targetPoint" />
          </mxGeometry>
        </mxCell>
        <mxCell id="08VoQowIVhZlx_lKVz8W-5" value="&lt;b&gt;Tworzymy połaczenie pomiędzy naszymi plikami a ich interfejsami w programie &quot;Program.CS&quot; uwzględniając jak te połaczenia mają wyglądać i ile trwać&lt;/b&gt;" style="rounded=0;whiteSpace=wrap;html=1;" vertex="1" parent="1">
          <mxGeometry x="3760" y="1100" width="280" height="60" as="geometry" />
        </mxCell>
        <mxCell id="08VoQowIVhZlx_lKVz8W-6" value="" style="endArrow=classic;html=1;rounded=0;exitX=0.5;exitY=1;exitDx=0;exitDy=0;entryX=0.5;entryY=0;entryDx=0;entryDy=0;" edge="1" parent="1" source="08VoQowIVhZlx_lKVz8W-5" target="08VoQowIVhZlx_lKVz8W-7">
          <mxGeometry width="50" height="50" relative="1" as="geometry">
            <mxPoint x="3900" y="1170" as="sourcePoint" />
            <mxPoint x="3900" y="1260" as="targetPoint" />
          </mxGeometry>
        </mxCell>
        <mxCell id="08VoQowIVhZlx_lKVz8W-7" value="&lt;b&gt;Tworzymy poprzez &quot;Ctrl.&quot; interface UseCase w tym wypadku &quot;VievInventoriesByNameUsecase&quot; w którym powinna być wpisana metoda której ten interfejs może używać i tworzę pomiezy nimi połaćzenie w &quot;Program.cs&quot;&lt;/b&gt;" style="rounded=0;whiteSpace=wrap;html=1;" vertex="1" parent="1">
          <mxGeometry x="3760" y="1260" width="280" height="90" as="geometry" />
        </mxCell>
      </root>
    </mxGraphModel>
  </diagram>
</mxfile>
